<svg id="visual" viewBox="0 0 960 540" width="960" height="540" xmlns="http://www.w3.org/2000/svg" xmlns:xlink="http://www.w3.org/1999/xlink" version="1.1"><rect x="0" y="0" width="960" height="540" fill="#001220"></rect><path d="M0 267L22.8 278C45.7 289 91.3 311 137 319.2C182.7 327.3 228.3 321.7 274 312.7C319.7 303.7 365.3 291.3 411.2 285.8C457 280.3 503 281.7 548.8 289.2C594.7 296.7 640.3 310.3 686 315.2C731.7 320 777.3 316 823 315.8C868.7 315.7 914.3 319.3 937.2 321.2L960 323L960 541L937.2 541C914.3 541 868.7 541 823 541C777.3 541 731.7 541 686 541C640.3 541 594.7 541 548.8 541C503 541 457 541 411.2 541C365.3 541 319.7 541 274 541C228.3 541 182.7 541 137 541C91.3 541 45.7 541 22.8 541L0 541Z" fill="#f6fa69"></path><path d="M0 275L22.8 275.3C45.7 275.7 91.3 276.3 137 274.7C182.7 273 228.3 269 274 268.7C319.7 268.3 365.3 271.7 411.2 282.3C457 293 503 311 548.8 310.2C594.7 309.3 640.3 289.7 686 286C731.7 282.3 777.3 294.7 823 304C868.7 313.3 914.3 319.7 937.2 322.8L960 326L960 541L937.2 541C914.3 541 868.7 541 823 541C777.3 541 731.7 541 686 541C640.3 541 594.7 541 548.8 541C503 541 457 541 411.2 541C365.3 541 319.7 541 274 541C228.3 541 182.7 541 137 541C91.3 541 45.7 541 22.8 541L0 541Z" fill="#f3e353"></path><path d="M0 367L22.8 363.3C45.7 359.7 91.3 352.3 137 353.7C182.7 355 228.3 365 274 368.3C319.7 371.7 365.3 368.3 411.2 360.5C457 352.7 503 340.3 548.8 339.2C594.7 338 640.3 348 686 352.7C731.7 357.3 777.3 356.7 823 358.7C868.7 360.7 914.3 365.3 937.2 367.7L960 370L960 541L937.2 541C914.3 541 868.7 541 823 541C777.3 541 731.7 541 686 541C640.3 541 594.7 541 548.8 541C503 541 457 541 411.2 541C365.3 541 319.7 541 274 541C228.3 541 182.7 541 137 541C91.3 541 45.7 541 22.8 541L0 541Z" fill="#eecc3f"></path><path d="M0 387L22.8 380.3C45.7 373.7 91.3 360.3 137 357.3C182.7 354.3 228.3 361.7 274 369.5C319.7 377.3 365.3 385.7 411.2 385.3C457 385 503 376 548.8 375.8C594.7 375.7 640.3 384.3 686 382.2C731.7 380 777.3 367 823 356.7C868.7 346.3 914.3 338.7 937.2 334.8L960 331L960 541L937.2 541C914.3 541 868.7 541 823 541C777.3 541 731.7 541 686 541C640.3 541 594.7 541 548.8 541C503 541 457 541 411.2 541C365.3 541 319.7 541 274 541C228.3 541 182.7 541 137 541C91.3 541 45.7 541 22.8 541L0 541Z" fill="#e8b52c"></path><path d="M0 394L22.8 390.7C45.7 387.3 91.3 380.7 137 380.8C182.7 381 228.3 388 274 397.5C319.7 407 365.3 419 411.2 425.7C457 432.3 503 433.7 548.8 423C594.7 412.3 640.3 389.7 686 387.5C731.7 385.3 777.3 403.7 823 406C868.7 408.3 914.3 394.7 937.2 387.8L960 381L960 541L937.2 541C914.3 541 868.7 541 823 541C777.3 541 731.7 541 686 541C640.3 541 594.7 541 548.8 541C503 541 457 541 411.2 541C365.3 541 319.7 541 274 541C228.3 541 182.7 541 137 541C91.3 541 45.7 541 22.8 541L0 541Z" fill="#e19f1c"></path><path d="M0 452L22.8 450.8C45.7 449.7 91.3 447.3 137 446.8C182.7 446.3 228.3 447.7 274 446.2C319.7 444.7 365.3 440.3 411.2 440.7C457 441 503 446 548.8 448.8C594.7 451.7 640.3 452.3 686 447.7C731.7 443 777.3 433 823 429.5C868.7 426 914.3 429 937.2 430.5L960 432L960 541L937.2 541C914.3 541 868.7 541 823 541C777.3 541 731.7 541 686 541C640.3 541 594.7 541 548.8 541C503 541 457 541 411.2 541C365.3 541 319.7 541 274 541C228.3 541 182.7 541 137 541C91.3 541 45.7 541 22.8 541L0 541Z" fill="#d9880d"></path><path d="M0 472L22.8 472.3C45.7 472.7 91.3 473.3 137 468.8C182.7 464.3 228.3 454.7 274 454.8C319.7 455 365.3 465 411.2 468.5C457 472 503 469 548.8 469C594.7 469 640.3 472 686 472.3C731.7 472.7 777.3 470.3 823 469.2C868.7 468 914.3 468 937.2 468L960 468L960 541L937.2 541C914.3 541 868.7 541 823 541C777.3 541 731.7 541 686 541C640.3 541 594.7 541 548.8 541C503 541 457 541 411.2 541C365.3 541 319.7 541 274 541C228.3 541 182.7 541 137 541C91.3 541 45.7 541 22.8 541L0 541Z" fill="#d07103"></path><path d="M0 499L22.8 496.3C45.7 493.7 91.3 488.3 137 484.5C182.7 480.7 228.3 478.3 274 480.3C319.7 482.3 365.3 488.7 411.2 491C457 493.3 503 491.7 548.8 491.5C594.7 491.3 640.3 492.7 686 490.5C731.7 488.3 777.3 482.7 823 481.2C868.7 479.7 914.3 482.3 937.2 483.7L960 485L960 541L937.2 541C914.3 541 868.7 541 823 541C777.3 541 731.7 541 686 541C640.3 541 594.7 541 548.8 541C503 541 457 541 411.2 541C365.3 541 319.7 541 274 541C228.3 541 182.7 541 137 541C91.3 541 45.7 541 22.8 541L0 541Z" fill="#c55900"></path></svg>