<svg id="visual" viewBox="0 0 960 540" width="960" height="540" xmlns="http://www.w3.org/2000/svg" xmlns:xlink="http://www.w3.org/1999/xlink" version="1.1"><rect x="0" y="0" width="960" height="540" fill="#fcf13d"></rect><path d="M0 233L20 218.2C40 203.3 80 173.7 120 175.8C160 178 200 212 240 212.7C280 213.3 320 180.7 360 176C400 171.3 440 194.7 480 208.8C520 223 560 228 600 232.8C640 237.7 680 242.3 720 234C760 225.7 800 204.3 840 200.3C880 196.3 920 209.7 940 216.3L960 223L960 541L940 541C920 541 880 541 840 541C800 541 760 541 720 541C680 541 640 541 600 541C560 541 520 541 480 541C440 541 400 541 360 541C320 541 280 541 240 541C200 541 160 541 120 541C80 541 40 541 20 541L0 541Z" fill="#edfa69"></path><path d="M0 161L20 174.5C40 188 80 215 120 229C160 243 200 244 240 251.3C280 258.7 320 272.3 360 260.7C400 249 440 212 480 207.3C520 202.7 560 230.3 600 217.2C640 204 680 150 720 127.3C760 104.7 800 113.3 840 140.2C880 167 920 212 940 234.5L960 257L960 541L940 541C920 541 880 541 840 541C800 541 760 541 720 541C680 541 640 541 600 541C560 541 520 541 480 541C440 541 400 541 360 541C320 541 280 541 240 541C200 541 160 541 120 541C80 541 40 541 20 541L0 541Z" fill="#f0ee5a"></path><path d="M0 180L20 178.5C40 177 80 174 120 177.5C160 181 200 191 240 205.7C280 220.3 320 239.7 360 252.5C400 265.3 440 271.7 480 271.3C520 271 560 264 600 255.7C640 247.3 680 237.7 720 240.2C760 242.7 800 257.3 840 258.7C880 260 920 248 940 242L960 236L960 541L940 541C920 541 880 541 840 541C800 541 760 541 720 541C680 541 640 541 600 541C560 541 520 541 480 541C440 541 400 541 360 541C320 541 280 541 240 541C200 541 160 541 120 541C80 541 40 541 20 541L0 541Z" fill="#f2e24b"></path><path d="M0 337L20 313.2C40 289.3 80 241.7 120 235.8C160 230 200 266 240 266.7C280 267.3 320 232.7 360 234.3C400 236 440 274 480 292.2C520 310.3 560 308.7 600 308C640 307.3 680 307.7 720 299.2C760 290.7 800 273.3 840 278.7C880 284 920 312 940 326L960 340L960 541L940 541C920 541 880 541 840 541C800 541 760 541 720 541C680 541 640 541 600 541C560 541 520 541 480 541C440 541 400 541 360 541C320 541 280 541 240 541C200 541 160 541 120 541C80 541 40 541 20 541L0 541Z" fill="#f4d53e"></path><path d="M0 286L20 293.8C40 301.7 80 317.3 120 328.7C160 340 200 347 240 349.3C280 351.7 320 349.3 360 330C400 310.7 440 274.3 480 252.2C520 230 560 222 600 221.3C640 220.7 680 227.3 720 239.2C760 251 800 268 840 284.7C880 301.3 920 317.7 940 325.8L960 334L960 541L940 541C920 541 880 541 840 541C800 541 760 541 720 541C680 541 640 541 600 541C560 541 520 541 480 541C440 541 400 541 360 541C320 541 280 541 240 541C200 541 160 541 120 541C80 541 40 541 20 541L0 541Z" fill="#f6c931"></path><path d="M0 366L20 368.2C40 370.3 80 374.7 120 377.8C160 381 200 383 240 382C280 381 320 377 360 369.3C400 361.7 440 350.3 480 349C520 347.7 560 356.3 600 344.7C640 333 680 301 720 299.8C760 298.7 800 328.3 840 331.7C880 335 920 312 940 300.5L960 289L960 541L940 541C920 541 880 541 840 541C800 541 760 541 720 541C680 541 640 541 600 541C560 541 520 541 480 541C440 541 400 541 360 541C320 541 280 541 240 541C200 541 160 541 120 541C80 541 40 541 20 541L0 541Z" fill="#f7bc25"></path><path d="M0 310L20 315.8C40 321.7 80 333.3 120 347C160 360.7 200 376.3 240 374.5C280 372.7 320 353.3 360 352.8C400 352.3 440 370.7 480 370.2C520 369.7 560 350.3 600 338.8C640 327.3 680 323.7 720 325C760 326.3 800 332.7 840 343.5C880 354.3 920 369.7 940 377.3L960 385L960 541L940 541C920 541 880 541 840 541C800 541 760 541 720 541C680 541 640 541 600 541C560 541 520 541 480 541C440 541 400 541 360 541C320 541 280 541 240 541C200 541 160 541 120 541C80 541 40 541 20 541L0 541Z" fill="#f8af1b"></path><path d="M0 418L20 407.7C40 397.3 80 376.7 120 372.2C160 367.7 200 379.3 240 387.3C280 395.3 320 399.7 360 404.3C400 409 440 414 480 419.2C520 424.3 560 429.7 600 431.3C640 433 680 431 720 426.8C760 422.7 800 416.3 840 418.8C880 421.3 920 432.7 940 438.3L960 444L960 541L940 541C920 541 880 541 840 541C800 541 760 541 720 541C680 541 640 541 600 541C560 541 520 541 480 541C440 541 400 541 360 541C320 541 280 541 240 541C200 541 160 541 120 541C80 541 40 541 20 541L0 541Z" fill="#f8a212"></path><path d="M0 404L20 403.5C40 403 80 402 120 411.3C160 420.7 200 440.3 240 441.3C280 442.3 320 424.7 360 423.5C400 422.3 440 437.7 480 433.2C520 428.7 560 404.3 600 405.3C640 406.3 680 432.7 720 446.8C760 461 800 463 840 453.8C880 444.7 920 424.3 940 414.2L960 404L960 541L940 541C920 541 880 541 840 541C800 541 760 541 720 541C680 541 640 541 600 541C560 541 520 541 480 541C440 541 400 541 360 541C320 541 280 541 240 541C200 541 160 541 120 541C80 541 40 541 20 541L0 541Z" fill="#f8940d"></path><path d="M0 460L20 456.8C40 453.7 80 447.3 120 449.8C160 452.3 200 463.7 240 464.2C280 464.7 320 454.3 360 445.5C400 436.7 440 429.3 480 435.5C520 441.7 560 461.3 600 470.3C640 479.3 680 477.7 720 469C760 460.3 800 444.7 840 443.7C880 442.7 920 456.3 940 463.2L960 470L960 541L940 541C920 541 880 541 840 541C800 541 760 541 720 541C680 541 640 541 600 541C560 541 520 541 480 541C440 541 400 541 360 541C320 541 280 541 240 541C200 541 160 541 120 541C80 541 40 541 20 541L0 541Z" fill="#f8860c"></path><path d="M0 513L20 512.2C40 511.3 80 509.7 120 504.7C160 499.7 200 491.3 240 491.8C280 492.3 320 501.7 360 507.7C400 513.7 440 516.3 480 514.5C520 512.7 560 506.3 600 498.7C640 491 680 482 720 475.8C760 469.7 800 466.3 840 471.7C880 477 920 491 940 498L960 505L960 541L940 541C920 541 880 541 840 541C800 541 760 541 720 541C680 541 640 541 600 541C560 541 520 541 480 541C440 541 400 541 360 541C320 541 280 541 240 541C200 541 160 541 120 541C80 541 40 541 20 541L0 541Z" fill="#f7770f"></path></svg>